<svg xmlns="http://www.w3.org/2000/svg" viewBox="0 0 480 480"><linearGradient id="a" gradientUnits="userSpaceOnUse" x1="-59.656" y1="587.625" x2="29.025" y2="587.625" gradientTransform="matrix(8 0 0 -8 455 4941)"><stop offset="0" stop-color="#e93e3a"/><stop offset=".36" stop-color="#ed683c"/><stop offset=".714" stop-color="#f3903f"/><stop offset="1" stop-color="#fdc70c"/></linearGradient><path d="M240 0C107.452 0 0 107.452 0 240s107.452 240 240 240 240-107.452 240-240C479.85 107.514 372.486.15 240 0zm0 464C116.288 464 16 363.712 16 240S116.288 16 240 16s224 100.288 224 224c-.141 123.653-100.347 223.859-224 224z" fill="url(#a)"/><linearGradient id="b" gradientUnits="userSpaceOnUse" x1="-59.656" y1="587.625" x2="29.025" y2="587.625" gradientTransform="matrix(8 0 0 -8 455 4941)"><stop offset="0" stop-color="#e93e3a"/><stop offset=".36" stop-color="#ed683c"/><stop offset=".714" stop-color="#f3903f"/><stop offset="1" stop-color="#fdc70c"/></linearGradient><path d="M240 32C125.125 32 32 125.125 32 240s93.125 208 208 208 208-93.125 208-208c-.128-114.822-93.178-207.872-208-208zm191.8 216a191.278 191.278 0 01-50.576 121.912l-16.8-16.8-11.312 11.312 16.8 16.8A191.278 191.278 0 01248 431.8V408h-16v23.8a191.278 191.278 0 01-121.912-50.576l16.8-16.8-11.312-11.312-16.8 16.8A191.278 191.278 0 0148.2 248H72v-16H48.2a191.278 191.278 0 0150.576-121.912l16.8 16.8 11.312-11.312-16.8-16.8A191.278 191.278 0 01232 48.2V72h16V48.2a191.278 191.278 0 01121.912 50.576l-16.8 16.8 11.312 11.312 16.8-16.8A191.278 191.278 0 01431.8 232H408v16h23.8z" fill="url(#b)"/><linearGradient id="c" gradientUnits="userSpaceOnUse" x1="-59.656" y1="594.124" x2="29.025" y2="594.124" gradientTransform="matrix(8 0 0 -8 455 4941)"><stop offset="0" stop-color="#e93e3a"/><stop offset=".36" stop-color="#ed683c"/><stop offset=".714" stop-color="#f3903f"/><stop offset="1" stop-color="#fdc70c"/></linearGradient><path d="M248 209.136V104h-16v105.136c-17.086 4.378-27.387 21.778-23.009 38.864s21.778 27.387 38.864 23.009A31.935 31.935 0 00270.864 248H344v-16h-73.136A31.928 31.928 0 00248 209.136zM240 256c-8.837 0-16-7.163-16-16s7.163-16 16-16 16 7.163 16 16-7.163 16-16 16z" fill="url(#c)"/><linearGradient id="d" gradientUnits="userSpaceOnUse" x1="-59.656" y1="576.625" x2="29.025" y2="576.625" gradientTransform="matrix(8 0 0 -8 455 4941)"><stop offset="0" stop-color="#e93e3a"/><stop offset=".36" stop-color="#ed683c"/><stop offset=".714" stop-color="#f3903f"/><stop offset="1" stop-color="#fdc70c"/></linearGradient><path d="M200 320h16v16h-16v-16z" fill="url(#d)"/><linearGradient id="e" gradientUnits="userSpaceOnUse" x1="-59.656" y1="576.625" x2="29.025" y2="576.625" gradientTransform="matrix(8 0 0 -8 455 4941)"><stop offset="0" stop-color="#e93e3a"/><stop offset=".36" stop-color="#ed683c"/><stop offset=".714" stop-color="#f3903f"/><stop offset="1" stop-color="#fdc70c"/></linearGradient><path d="M232 320h48v16h-48v-16z" fill="url(#e)"/></svg>