<svg width="119" height="38" xmlns="http://www.w3.org/2000/svg" xmlns:xlink="http://www.w3.org/1999/xlink" xmlns:svgjs="http://svgjs.com/svgjs" viewBox="0 0.448 119 37.104" fill="#fff"><svg xmlns="http://www.w3.org/2000/svg" width="119" height="38" viewBox="1.983 1.707 116.403 36.294"><path paint-order="stroke fill markers" fill-rule="evenodd" d="M35.341 27.381l-1.147 6.087c-5.028 2.734-9.527 4.322-15.432 4.52-10.038.335-16.78-5.591-16.78-15.946 0-12.114 8.327-20.469 20.7-20.333 6.02.066 10.189 2.051 12.042 3.308l-3.353 7.631c-1.501-.725-4.323-1.235-6.704-1.235-6.11 0-9.092 3.965-9.263 9.087-.176 5.293 3.095 8.798 7.94 9.263 6.44.618 10.41-1.588 11.997-2.382zm22.45 1.884c-.254 1.82.42 2.946 4.655 1.093l1.522 4.5c-5.293 2.491-8.506 3.13-10.623 3.13-3.219 0-5.125-1.313-5.844-3.218-2.33 2.16-4.785 3.218-7.58 3.218-4.489 0-7.199-3.303-6.564-7.75l2.16-15.244h10.248l-1.822 12.831c-.169 1.144.551 2.075 1.61 2.075 1.016 0 1.99-.931 2.16-2.075l1.82-12.831h10.248l-1.99 14.27zm20.367-12.069l1.524-11.052H89.93l-3.26 23.29c-.212 1.652.544 2.887 4.778.594l1.676 4.763c-1.676.97-5.822 3.264-10.9 3.197-3.134-.042-5.125-1.44-5.802-3.515-1.779 2.075-3.938 3.515-7.241 3.515-4.743 0-7.495-4.404-7.495-9.91 0-7.748 4.954-13.635 11.136-13.635 2.456 0 4.108 1.059 5.336 2.753zm-.381 8.385c0-1.779-.974-3.176-2.499-3.176-1.99 0-3.557 2.032-3.557 4.362 0 1.777.932 3.175 2.499 3.175 1.948 0 3.557-2.032 3.557-4.361zm29.726-8.385l.296-2.202h10.248l-2.033 14.44c-.212 1.652.805 1.948 2.371 1.567l-.361 4.385c-2.184 1.72-4.339 2.602-6.456 2.602-3.134 0-5.124-1.44-5.802-3.515-1.778 2.118-4.022 3.515-7.24 3.515-4.744 0-7.496-4.404-7.496-9.91 0-7.579 4.954-13.635 11.137-13.635 2.456 0 4.107 1.059 5.336 2.753zm-.381 8.385c0-1.779-.974-3.176-2.5-3.176-1.99 0-3.556 2.032-3.556 4.362 0 1.777.932 3.175 2.498 3.175 1.948 0 3.558-2.032 3.558-4.361z"/></svg></svg>