<svg xmlns="http://www.w3.org/2000/svg" viewBox="0 0 64 64"><defs><style>.cls-2{fill:#92a6ad}.cls-5{fill:#74d800}</style></defs><g id="Layer_2" data-name="Layer 2"><g id="Layer_1-2" data-name="Layer 1"><path d="M4 0h56a4 4 0 014 4v8H0V4a4 4 0 014-4z" fill="#cfd8dd"/><circle class="cls-2" cx="6" cy="6" r="2"/><circle class="cls-2" cx="12" cy="6" r="2"/><circle class="cls-2" cx="18" cy="6" r="2"/><path d="M0 12h64v48a4 4 0 01-4 4H4a4 4 0 01-4-4V12z" fill="#37474f"/><path d="M6 18h10v2H6zm4 4h22v2H10zm0 28h26v2H10zm0-24h28v2H10zm4 4h36v2H14zm0 4h28v2H14zm0 4h20v2H14zm0 4h26v2H14zm-4 4h6v2h-6zm-4 8h6v2H6z" fill="#78909c"/><path class="cls-5" d="M12 18h6v2h-6zm4 4h8v2h-8zm10 4h8v2h-8zm-4 4h8v2h-8zm12 4h6v2h-6zm-6 4h6v2h-6z"/><path d="M14 38h6v2h-6zm0-8h6v2h-6zm0 4h6v2h-6zm-4-8h6v2h-6zm0 24h6v2h-6z" fill="#ffda00"/><path class="cls-5" d="M14 42h6v2h-6zm6 8h6v2h-6z"/><path d="M24 34h6v2h-6zm-6-8h6v2h-6zm10 16h6v2h-6zm-2 8h6v2h-6zm18-20h6v2h-6z" fill="#f74f80"/></g></g></svg>