<svg height="512" viewBox="0 0 128 128" width="512" xmlns="http://www.w3.org/2000/svg" data-name="Layer 2"><path d="M64 0a64 64 0 1064 64A64.072 64.072 0 0064 0zm0 124.5A60.5 60.5 0 11124.5 64 60.569 60.569 0 0164 124.5z"/><path d="M64 10a54 54 0 1054 54 54.061 54.061 0 00-54-54zm0 104.5A50.5 50.5 0 11114.5 64 50.557 50.557 0 0164 114.5z"/><path d="M90.483 39.834a1.748 1.748 0 00-2.474 0L57.531 70.311l-17.54-17.54a1.8 1.8 0 00-2.474 0l-7.071 7.072a1.75 1.75 0 000 2.474l25.848 25.849a1.749 1.749 0 002.475 0L97.554 49.38a1.751 1.751 0 000-2.475zm-32.952 44.62L34.158 61.08l4.6-4.6 17.54 17.539a1.749 1.749 0 002.475 0l30.473-30.473 4.6 4.6z"/></svg>