<svg xmlns="http://www.w3.org/2000/svg" viewBox="0 0 512 512"><path d="M435.574 59.858H76.426C34.285 59.858 0 94.143 0 136.284v171.023a8.017 8.017 0 0016.034 0V136.284c0-33.3 27.092-60.393 60.393-60.393h359.148c33.3 0 60.393 27.092 60.393 60.393v239.432c0 33.3-27.092 60.393-60.393 60.393H76.426c-33.3 0-60.393-27.092-60.393-60.393v-34.205a8.017 8.017 0 00-16.034 0v34.205c0 42.141 34.285 76.426 76.426 76.426h359.148c42.141 0 76.426-34.285 76.426-76.426V136.284c.001-42.141-34.284-76.426-76.425-76.426z"/><path d="M362.982 249.278l-34.205-22.233a8.018 8.018 0 00-8.738 13.444L343.903 256l-148.296 96.394V159.607l98.779 64.206a8.018 8.018 0 0011.09-2.353 8.016 8.016 0 00-2.353-11.091l-111.165-72.256c-5.24-3.407-12.384.491-12.384 6.721v222.33c0 6.226 7.142 10.131 12.385 6.721L362.982 262.72c4.779-3.105 4.778-10.335 0-13.442z"/></svg>