<svg fill="#ffff" height="512" viewBox="0 0 64 64" width="512" xmlns="http://www.w3.org/2000/svg"><path d="M33.5 17c0-5.238-4.262-9.5-9.5-9.5-6.796 0-10.423 3.498-11.157 4.724a2.452 2.452 0 00-.343 1.265v7.023c0 .453.118.891.343 1.265C13.577 23.002 17.204 26.5 24 26.5c5.238 0 9.5-4.262 9.5-9.5zM24 25.5c-5.862 0-9.471-2.854-10.3-4.237a1.462 1.462 0 01-.2-.751v-7.023c0-.272.069-.532.2-.751C14.529 11.354 18.138 8.5 24 8.5c4.687 0 8.5 3.813 8.5 8.5s-3.813 8.5-8.5 8.5z"/><path d="M15.387 12.08a.5.5 0 00-.139.693c.165.247.252.535.252.832v6.923c0 .231-.055.463-.158.67a.5.5 0 00.895.448c.173-.345.264-.731.264-1.117v-6.923c0-.495-.146-.975-.42-1.387a.5.5 0 00-.694-.139zM30 17.5h-5c-.275 0-.5-.225-.5-.5s.225-.5.5-.5h5a.5.5 0 000-1h-5c-.827 0-1.5.673-1.5 1.5s.673 1.5 1.5 1.5h5a.5.5 0 000-1zm-8 10a.5.5 0 00-.5.5v21a.5.5 0 00.5.5h.5V53a.5.5 0 00.5.5h1.5V56a.5.5 0 001 0v-2.5H27a.5.5 0 00.5-.5v-3.5h.5a.5.5 0 00.5-.5V27a.5.5 0 00-1 0v21.5h-5V28a.5.5 0 00-.5-.5zm1.5 22h3v3h-3zm21.5-35h-.5V11a.5.5 0 00-.5-.5h-1.5V8a.5.5 0 00-1 0v2.5H40a.5.5 0 00-.5.5v3.5H39a.5.5 0 00-.5.5v26.995c0 .029-.05 2.962-1.842 4.64a.5.5 0 00.684.73c2.101-1.968 2.157-5.223 2.158-5.365V15.5h5v26.505c.001.138.058 3.393 2.158 5.36a.5.5 0 00.684-.73 4.803 4.803 0 01-.833-1.046c-.971-1.625-1.009-3.571-1.009-3.594V15a.5.5 0 00-.5-.5zm-1.5 0h-3v-3h3z"/><path d="M47.277 39.104a.5.5 0 00-.554.832A8.48 8.48 0 0150.5 47c0 4.687-3.813 8.5-8.5 8.5s-8.5-3.813-8.5-8.5a8.48 8.48 0 013.777-7.064.5.5 0 10-.554-.832A9.476 9.476 0 0032.5 47c0 5.238 4.262 9.5 9.5 9.5s9.5-4.262 9.5-9.5a9.476 9.476 0 00-4.223-7.896z"/><path d="M42.5 53v-3a.5.5 0 00-1 0v3a.5.5 0 001 0z"/></svg>